<svg width="11" height="10" viewBox="0 0 11 10" fill="none" xmlns="http://www.w3.org/2000/svg">
<path d="M5.58077 0.278717C5.39737 -0.092906 4.86744 -0.0929054 4.68404 0.278717L3.48538 2.70745C3.41255 2.85502 3.27177 2.95731 3.10891 2.98097L0.428648 3.37044C0.0185375 3.43003 -0.145218 3.93402 0.15154 4.22329L2.091 6.11379C2.20884 6.22866 2.26262 6.39416 2.2348 6.55636L1.77696 9.2258C1.7069 9.63425 2.13562 9.94573 2.50243 9.75288L4.89974 8.49255C5.0454 8.41597 5.21941 8.41597 5.36508 8.49255L7.76238 9.75288C8.12919 9.94573 8.55791 9.63425 8.48786 9.22579L8.03001 6.55636C8.00219 6.39416 8.05597 6.22866 8.17381 6.11379L10.1133 4.22328C10.41 3.93402 10.2463 3.43003 9.83616 3.37044L7.1559 2.98097C6.99304 2.95731 6.85226 2.85502 6.77942 2.70745L5.58077 0.278717Z" fill="#FFC700"/>
</svg>
